<mxfile host="Electron" agent="Mozilla/5.0 (X11; Linux x86_64) AppleWebKit/537.36 (KHTML, like Gecko) draw.io/28.0.4 Chrome/138.0.7204.97 Electron/37.2.1 Safari/537.36" version="28.0.4" pages="2">
  <diagram name="Signal flow sound" id="deBqsxXk1ANOVacVeWcc">
    <mxGraphModel dx="2678" dy="1104" grid="1" gridSize="10" guides="1" tooltips="1" connect="1" arrows="1" fold="1" page="1" pageScale="1" pageWidth="4681" pageHeight="3300" math="0" shadow="0">
      <root>
        <mxCell id="0" />
        <mxCell id="1" parent="0" />
        <mxCell id="1RlUKnHz0VrdkwbsVvpS-1" value="JPVoice" style="text;html=1;align=center;verticalAlign=middle;whiteSpace=wrap;rounded=0;fontSize=30;" parent="1" vertex="1">
          <mxGeometry x="40" y="20" width="60" height="30" as="geometry" />
        </mxCell>
        <mxCell id="1RlUKnHz0VrdkwbsVvpS-20" style="edgeStyle=orthogonalEdgeStyle;rounded=0;orthogonalLoop=1;jettySize=auto;html=1;curved=1;entryX=0.25;entryY=0;entryDx=0;entryDy=0;exitX=0.25;exitY=1;exitDx=0;exitDy=0;" parent="1" source="1RlUKnHz0VrdkwbsVvpS-10" target="1RlUKnHz0VrdkwbsVvpS-29" edge="1">
          <mxGeometry relative="1" as="geometry">
            <mxPoint x="210" y="240" as="sourcePoint" />
            <mxPoint x="375" y="474" as="targetPoint" />
          </mxGeometry>
        </mxCell>
        <mxCell id="1RlUKnHz0VrdkwbsVvpS-26" style="edgeStyle=orthogonalEdgeStyle;rounded=0;orthogonalLoop=1;jettySize=auto;html=1;exitX=0.5;exitY=1;exitDx=0;exitDy=0;curved=1;entryX=0.25;entryY=0;entryDx=0;entryDy=0;" parent="1" source="1RlUKnHz0VrdkwbsVvpS-5" target="1RlUKnHz0VrdkwbsVvpS-33" edge="1">
          <mxGeometry relative="1" as="geometry">
            <mxPoint x="150" y="230" as="sourcePoint" />
            <mxPoint x="210" y="480" as="targetPoint" />
          </mxGeometry>
        </mxCell>
        <mxCell id="1RlUKnHz0VrdkwbsVvpS-27" style="edgeStyle=orthogonalEdgeStyle;rounded=0;orthogonalLoop=1;jettySize=auto;html=1;exitX=0.5;exitY=1;exitDx=0;exitDy=0;curved=1;entryX=0.75;entryY=0;entryDx=0;entryDy=0;" parent="1" source="1RlUKnHz0VrdkwbsVvpS-24" target="1RlUKnHz0VrdkwbsVvpS-70" edge="1">
          <mxGeometry relative="1" as="geometry">
            <mxPoint x="310" y="400" as="sourcePoint" />
            <mxPoint x="210" y="510" as="targetPoint" />
          </mxGeometry>
        </mxCell>
        <mxCell id="1RlUKnHz0VrdkwbsVvpS-29" value="fb" style="rounded=1;whiteSpace=wrap;html=1;fillColor=#f8cecc;strokeColor=#b85450;" parent="1" vertex="1">
          <mxGeometry x="40" y="620" width="40" height="39" as="geometry" />
        </mxCell>
        <mxCell id="1RlUKnHz0VrdkwbsVvpS-30" value="mod" style="rounded=1;whiteSpace=wrap;html=1;fillColor=#dae8fc;strokeColor=#6c8ebf;" parent="1" vertex="1">
          <mxGeometry x="105" y="620" width="40" height="39" as="geometry" />
        </mxCell>
        <mxCell id="1RlUKnHz0VrdkwbsVvpS-31" style="edgeStyle=orthogonalEdgeStyle;rounded=0;orthogonalLoop=1;jettySize=auto;html=1;curved=1;entryX=0.5;entryY=0;entryDx=0;entryDy=0;exitX=0.5;exitY=1;exitDx=0;exitDy=0;" parent="1" source="1RlUKnHz0VrdkwbsVvpS-29" target="1RlUKnHz0VrdkwbsVvpS-30" edge="1">
          <mxGeometry relative="1" as="geometry">
            <mxPoint x="70" y="680" as="sourcePoint" />
            <mxPoint x="140" y="600" as="targetPoint" />
          </mxGeometry>
        </mxCell>
        <mxCell id="1RlUKnHz0VrdkwbsVvpS-32" style="edgeStyle=orthogonalEdgeStyle;rounded=0;orthogonalLoop=1;jettySize=auto;html=1;curved=1;exitX=0.5;exitY=1;exitDx=0;exitDy=0;entryX=0.75;entryY=0;entryDx=0;entryDy=0;" parent="1" source="1RlUKnHz0VrdkwbsVvpS-30" target="1RlUKnHz0VrdkwbsVvpS-29" edge="1">
          <mxGeometry relative="1" as="geometry">
            <mxPoint x="70" y="669" as="sourcePoint" />
            <mxPoint x="150" y="635" as="targetPoint" />
          </mxGeometry>
        </mxCell>
        <mxCell id="1RlUKnHz0VrdkwbsVvpS-33" value="fb" style="rounded=1;whiteSpace=wrap;html=1;fillColor=#f8cecc;strokeColor=#b85450;" parent="1" vertex="1">
          <mxGeometry x="160" y="619.99" width="40" height="39" as="geometry" />
        </mxCell>
        <mxCell id="1RlUKnHz0VrdkwbsVvpS-34" value="mod" style="rounded=1;whiteSpace=wrap;html=1;fillColor=#dae8fc;strokeColor=#6c8ebf;" parent="1" vertex="1">
          <mxGeometry x="225" y="619.99" width="40" height="39" as="geometry" />
        </mxCell>
        <mxCell id="1RlUKnHz0VrdkwbsVvpS-35" style="edgeStyle=orthogonalEdgeStyle;rounded=0;orthogonalLoop=1;jettySize=auto;html=1;curved=1;exitX=0.5;exitY=1;exitDx=0;exitDy=0;entryX=0.5;entryY=0;entryDx=0;entryDy=0;" parent="1" source="1RlUKnHz0VrdkwbsVvpS-33" target="1RlUKnHz0VrdkwbsVvpS-34" edge="1">
          <mxGeometry relative="1" as="geometry">
            <mxPoint x="298" y="379.99" as="sourcePoint" />
            <mxPoint x="260" y="599.99" as="targetPoint" />
          </mxGeometry>
        </mxCell>
        <mxCell id="1RlUKnHz0VrdkwbsVvpS-36" style="edgeStyle=orthogonalEdgeStyle;rounded=0;orthogonalLoop=1;jettySize=auto;html=1;curved=1;exitX=0.5;exitY=1;exitDx=0;exitDy=0;entryX=0.75;entryY=0;entryDx=0;entryDy=0;" parent="1" source="1RlUKnHz0VrdkwbsVvpS-34" target="1RlUKnHz0VrdkwbsVvpS-33" edge="1">
          <mxGeometry relative="1" as="geometry">
            <mxPoint x="190" y="668.99" as="sourcePoint" />
            <mxPoint x="270" y="634.99" as="targetPoint" />
          </mxGeometry>
        </mxCell>
        <mxCell id="1RlUKnHz0VrdkwbsVvpS-37" style="edgeStyle=orthogonalEdgeStyle;rounded=0;orthogonalLoop=1;jettySize=auto;html=1;curved=1;entryX=0.25;entryY=0;entryDx=0;entryDy=0;exitX=0.25;exitY=1;exitDx=0;exitDy=0;" parent="1" source="1RlUKnHz0VrdkwbsVvpS-29" target="1RlUKnHz0VrdkwbsVvpS-70" edge="1">
          <mxGeometry relative="1" as="geometry">
            <mxPoint x="188" y="170" as="sourcePoint" />
            <mxPoint x="70" y="420" as="targetPoint" />
          </mxGeometry>
        </mxCell>
        <mxCell id="1RlUKnHz0VrdkwbsVvpS-38" style="edgeStyle=orthogonalEdgeStyle;rounded=0;orthogonalLoop=1;jettySize=auto;html=1;curved=1;exitX=0.25;exitY=1;exitDx=0;exitDy=0;entryX=0.5;entryY=0;entryDx=0;entryDy=0;" parent="1" source="1RlUKnHz0VrdkwbsVvpS-33" target="1RlUKnHz0VrdkwbsVvpS-70" edge="1">
          <mxGeometry relative="1" as="geometry">
            <mxPoint x="70" y="459" as="sourcePoint" />
            <mxPoint x="360" y="450" as="targetPoint" />
          </mxGeometry>
        </mxCell>
        <mxCell id="1RlUKnHz0VrdkwbsVvpS-49" style="edgeStyle=orthogonalEdgeStyle;rounded=0;orthogonalLoop=1;jettySize=auto;html=1;exitX=0.5;exitY=1;exitDx=0;exitDy=0;curved=1;entryX=0.25;entryY=0;entryDx=0;entryDy=0;" parent="1" source="1RlUKnHz0VrdkwbsVvpS-71" target="1RlUKnHz0VrdkwbsVvpS-44" edge="1">
          <mxGeometry relative="1" as="geometry">
            <mxPoint x="535" y="400" as="sourcePoint" />
            <mxPoint x="770" y="390" as="targetPoint" />
            <Array as="points">
              <mxPoint x="215" y="890" />
              <mxPoint x="538" y="890" />
              <mxPoint x="538" y="240" />
              <mxPoint x="760" y="240" />
              <mxPoint x="760" y="360" />
              <mxPoint x="767" y="360" />
            </Array>
          </mxGeometry>
        </mxCell>
        <mxCell id="1RlUKnHz0VrdkwbsVvpS-50" style="edgeStyle=orthogonalEdgeStyle;rounded=0;orthogonalLoop=1;jettySize=auto;html=1;exitX=0.5;exitY=1;exitDx=0;exitDy=0;curved=1;entryX=0.75;entryY=0;entryDx=0;entryDy=0;" parent="1" source="1RlUKnHz0VrdkwbsVvpS-48" target="1RlUKnHz0VrdkwbsVvpS-44" edge="1">
          <mxGeometry relative="1" as="geometry">
            <mxPoint x="390" y="711" as="sourcePoint" />
            <mxPoint x="955" y="282" as="targetPoint" />
          </mxGeometry>
        </mxCell>
        <mxCell id="1RlUKnHz0VrdkwbsVvpS-58" value="amp" style="rounded=1;whiteSpace=wrap;html=1;fillColor=#dae8fc;strokeColor=#6c8ebf;" parent="1" vertex="1">
          <mxGeometry x="840" y="497" width="40" height="39" as="geometry" />
        </mxCell>
        <mxCell id="1RlUKnHz0VrdkwbsVvpS-59" style="edgeStyle=orthogonalEdgeStyle;rounded=0;orthogonalLoop=1;jettySize=auto;html=1;exitX=0.5;exitY=1;exitDx=0;exitDy=0;curved=1;entryX=0.5;entryY=0;entryDx=0;entryDy=0;" parent="1" source="1RlUKnHz0VrdkwbsVvpS-45" target="1RlUKnHz0VrdkwbsVvpS-58" edge="1">
          <mxGeometry relative="1" as="geometry">
            <mxPoint x="400" y="681" as="sourcePoint" />
            <mxPoint x="965" y="292" as="targetPoint" />
          </mxGeometry>
        </mxCell>
        <mxCell id="1RlUKnHz0VrdkwbsVvpS-60" style="edgeStyle=orthogonalEdgeStyle;rounded=0;orthogonalLoop=1;jettySize=auto;html=1;exitX=0.5;exitY=1;exitDx=0;exitDy=0;curved=1;entryX=1;entryY=0.5;entryDx=0;entryDy=0;" parent="1" source="1RlUKnHz0VrdkwbsVvpS-57" target="1RlUKnHz0VrdkwbsVvpS-58" edge="1">
          <mxGeometry relative="1" as="geometry">
            <mxPoint x="965" y="352" as="sourcePoint" />
            <mxPoint x="870" y="507" as="targetPoint" />
          </mxGeometry>
        </mxCell>
        <mxCell id="1RlUKnHz0VrdkwbsVvpS-64" style="edgeStyle=orthogonalEdgeStyle;rounded=0;orthogonalLoop=1;jettySize=auto;html=1;curved=1;exitX=0.5;exitY=1;exitDx=0;exitDy=0;entryX=0.6;entryY=-0.033;entryDx=0;entryDy=0;entryPerimeter=0;" parent="1" source="1RlUKnHz0VrdkwbsVvpS-58" target="ZW19zNElDARvfiaoEwRH-35" edge="1">
          <mxGeometry relative="1" as="geometry">
            <mxPoint x="950" y="582" as="sourcePoint" />
            <mxPoint x="883" y="632" as="targetPoint" />
          </mxGeometry>
        </mxCell>
        <mxCell id="1RlUKnHz0VrdkwbsVvpS-68" value="" style="group;fillColor=#d5e8d4;strokeColor=#82b366;" parent="1" vertex="1" connectable="0">
          <mxGeometry x="60" y="810" width="190" height="60" as="geometry" />
        </mxCell>
        <mxCell id="1RlUKnHz0VrdkwbsVvpS-69" value="Mixer" style="rounded=0;whiteSpace=wrap;html=1;" parent="1RlUKnHz0VrdkwbsVvpS-68" vertex="1">
          <mxGeometry width="120" height="60" as="geometry" />
        </mxCell>
        <mxCell id="1RlUKnHz0VrdkwbsVvpS-70" value="in" style="rounded=0;whiteSpace=wrap;html=1;fillColor=#d5e8d4;strokeColor=#82b366;" parent="1RlUKnHz0VrdkwbsVvpS-68" vertex="1">
          <mxGeometry x="120" width="70" height="30" as="geometry" />
        </mxCell>
        <mxCell id="1RlUKnHz0VrdkwbsVvpS-71" value="out" style="rounded=0;whiteSpace=wrap;html=1;fillColor=#dae8fc;strokeColor=#6c8ebf;" parent="1RlUKnHz0VrdkwbsVvpS-68" vertex="1">
          <mxGeometry x="120" y="30" width="70" height="30" as="geometry" />
        </mxCell>
        <mxCell id="T878VJU1H8XQpDewSJv4-1" style="edgeStyle=orthogonalEdgeStyle;rounded=0;orthogonalLoop=1;jettySize=auto;html=1;curved=1;entryX=0.5;entryY=0;entryDx=0;entryDy=0;exitX=0.75;exitY=1;exitDx=0;exitDy=0;" parent="1" source="1RlUKnHz0VrdkwbsVvpS-10" target="1RlUKnHz0VrdkwbsVvpS-3" edge="1">
          <mxGeometry relative="1" as="geometry">
            <mxPoint x="340" y="100" as="sourcePoint" />
            <mxPoint x="240" y="340" as="targetPoint" />
          </mxGeometry>
        </mxCell>
        <mxCell id="Q-x_b0IzeIrwjwUrBqdY-4" style="edgeStyle=orthogonalEdgeStyle;rounded=0;orthogonalLoop=1;jettySize=auto;html=1;curved=1;exitX=0.25;exitY=1;exitDx=0;exitDy=0;entryX=0.25;entryY=0;entryDx=0;entryDy=0;" parent="1" source="ZW19zNElDARvfiaoEwRH-36" target="ZW19zNElDARvfiaoEwRH-30" edge="1">
          <mxGeometry relative="1" as="geometry">
            <mxPoint x="883" y="692" as="sourcePoint" />
            <mxPoint x="920" y="752" as="targetPoint" />
          </mxGeometry>
        </mxCell>
        <mxCell id="-PE1lzg4pa8SutdhLXtv-4" value="" style="shape=cross;whiteSpace=wrap;html=1;rotation=-45;fillColor=#d80073;fontColor=#ffffff;strokeColor=#A50040;" vertex="1" parent="1">
          <mxGeometry x="297" y="102.34" width="28.48" height="27.66" as="geometry" />
        </mxCell>
        <mxCell id="-PE1lzg4pa8SutdhLXtv-5" value="Unused" style="text;html=1;align=left;verticalAlign=middle;whiteSpace=wrap;rounded=0;fontSize=12;" vertex="1" parent="1">
          <mxGeometry x="325.48" y="100" width="90" height="30" as="geometry" />
        </mxCell>
        <mxCell id="ZW19zNElDARvfiaoEwRH-1" value="" style="rounded=0;whiteSpace=wrap;html=1;fillColor=#e1d5e7;strokeColor=#9673a6;" vertex="1" parent="1">
          <mxGeometry x="580" y="705" width="40" height="20" as="geometry" />
        </mxCell>
        <mxCell id="ZW19zNElDARvfiaoEwRH-6" value="Shared buffer" style="text;html=1;align=left;verticalAlign=middle;whiteSpace=wrap;rounded=0;fontSize=12;" vertex="1" parent="1">
          <mxGeometry x="624" y="700" width="90" height="30" as="geometry" />
        </mxCell>
        <mxCell id="ZW19zNElDARvfiaoEwRH-18" value="" style="rounded=0;whiteSpace=wrap;html=1;fillColor=#f0a30a;strokeColor=#BD7000;fontColor=#000000;" vertex="1" parent="1">
          <mxGeometry x="1280" y="904" width="40" height="20" as="geometry" />
        </mxCell>
        <mxCell id="ZW19zNElDARvfiaoEwRH-19" value="Host buffer" style="text;html=1;align=left;verticalAlign=middle;whiteSpace=wrap;rounded=0;fontSize=12;" vertex="1" parent="1">
          <mxGeometry x="1324" y="899" width="90" height="30" as="geometry" />
        </mxCell>
        <mxCell id="ZW19zNElDARvfiaoEwRH-32" style="edgeStyle=orthogonalEdgeStyle;rounded=0;orthogonalLoop=1;jettySize=auto;html=1;curved=1;exitX=0.5;exitY=1;exitDx=0;exitDy=0;entryX=0.5;entryY=0;entryDx=0;entryDy=0;" edge="1" parent="1" source="ZW19zNElDARvfiaoEwRH-31" target="ZW19zNElDARvfiaoEwRH-101">
          <mxGeometry relative="1" as="geometry">
            <mxPoint x="893" y="702" as="sourcePoint" />
            <mxPoint x="1340" y="980" as="targetPoint" />
          </mxGeometry>
        </mxCell>
        <mxCell id="ZW19zNElDARvfiaoEwRH-33" value="" style="group;fillColor=#fff2cc;strokeColor=#d6b656;" vertex="1" connectable="0" parent="1">
          <mxGeometry x="720" y="590" width="190" height="60" as="geometry" />
        </mxCell>
        <mxCell id="ZW19zNElDARvfiaoEwRH-34" value="ParamFader" style="rounded=0;whiteSpace=wrap;html=1;" vertex="1" parent="ZW19zNElDARvfiaoEwRH-33">
          <mxGeometry width="120" height="60" as="geometry" />
        </mxCell>
        <mxCell id="ZW19zNElDARvfiaoEwRH-35" value="in" style="rounded=0;whiteSpace=wrap;html=1;fillColor=#dae8fc;strokeColor=#6c8ebf;" vertex="1" parent="ZW19zNElDARvfiaoEwRH-33">
          <mxGeometry x="120" width="70" height="30" as="geometry" />
        </mxCell>
        <mxCell id="ZW19zNElDARvfiaoEwRH-36" value="out" style="rounded=0;whiteSpace=wrap;html=1;fillColor=#dae8fc;strokeColor=#6c8ebf;" vertex="1" parent="ZW19zNElDARvfiaoEwRH-33">
          <mxGeometry x="120" y="30" width="70" height="30" as="geometry" />
        </mxCell>
        <mxCell id="ZW19zNElDARvfiaoEwRH-39" style="edgeStyle=orthogonalEdgeStyle;rounded=0;orthogonalLoop=1;jettySize=auto;html=1;curved=1;exitX=0.5;exitY=1;exitDx=0;exitDy=0;entryX=0.75;entryY=0;entryDx=0;entryDy=0;" edge="1" parent="1" source="ZW19zNElDARvfiaoEwRH-23" target="ZW19zNElDARvfiaoEwRH-30">
          <mxGeometry relative="1" as="geometry">
            <mxPoint x="970" y="682" as="sourcePoint" />
            <mxPoint x="1155" y="879" as="targetPoint" />
          </mxGeometry>
        </mxCell>
        <mxCell id="ZW19zNElDARvfiaoEwRH-44" value="" style="group" vertex="1" connectable="0" parent="1">
          <mxGeometry x="1299" y="560" width="190" height="134" as="geometry" />
        </mxCell>
        <mxCell id="ZW19zNElDARvfiaoEwRH-20" value="" style="group;fillColor=#dae8fc;strokeColor=#6c8ebf;" vertex="1" connectable="0" parent="ZW19zNElDARvfiaoEwRH-44">
          <mxGeometry y="74" width="190" height="60" as="geometry" />
        </mxCell>
        <mxCell id="ZW19zNElDARvfiaoEwRH-21" value="Reverb" style="rounded=0;whiteSpace=wrap;html=1;" vertex="1" parent="ZW19zNElDARvfiaoEwRH-20">
          <mxGeometry width="120" height="60" as="geometry" />
        </mxCell>
        <mxCell id="ZW19zNElDARvfiaoEwRH-22" value="in" style="rounded=0;whiteSpace=wrap;html=1;fillColor=#d5e8d4;strokeColor=#82b366;" vertex="1" parent="ZW19zNElDARvfiaoEwRH-20">
          <mxGeometry x="120" width="70" height="30" as="geometry" />
        </mxCell>
        <mxCell id="ZW19zNElDARvfiaoEwRH-23" value="out" style="rounded=0;whiteSpace=wrap;html=1;fillColor=#dae8fc;strokeColor=#6c8ebf;" vertex="1" parent="ZW19zNElDARvfiaoEwRH-20">
          <mxGeometry x="120" y="30" width="70" height="30" as="geometry" />
        </mxCell>
        <mxCell id="ZW19zNElDARvfiaoEwRH-41" value="&lt;div&gt;- Density&lt;/div&gt;- Space&lt;div&gt;- SpaceSize&lt;/div&gt;&lt;div&gt;- Damping&lt;/div&gt;" style="rounded=0;whiteSpace=wrap;html=1;align=left;verticalAlign=top;" vertex="1" parent="ZW19zNElDARvfiaoEwRH-44">
          <mxGeometry width="120" height="74" as="geometry" />
        </mxCell>
        <mxCell id="ZW19zNElDARvfiaoEwRH-46" value="" style="group" vertex="1" connectable="0" parent="1">
          <mxGeometry x="1020" y="770" width="190" height="87" as="geometry" />
        </mxCell>
        <mxCell id="ZW19zNElDARvfiaoEwRH-28" value="" style="group;fillColor=#d5e8d4;strokeColor=#82b366;" vertex="1" connectable="0" parent="ZW19zNElDARvfiaoEwRH-46">
          <mxGeometry y="27" width="190" height="60" as="geometry" />
        </mxCell>
        <mxCell id="ZW19zNElDARvfiaoEwRH-29" value="MixFader" style="rounded=0;whiteSpace=wrap;html=1;" vertex="1" parent="ZW19zNElDARvfiaoEwRH-28">
          <mxGeometry width="120" height="60" as="geometry" />
        </mxCell>
        <mxCell id="ZW19zNElDARvfiaoEwRH-30" value="in" style="rounded=0;whiteSpace=wrap;html=1;fillColor=#dae8fc;strokeColor=#6c8ebf;" vertex="1" parent="ZW19zNElDARvfiaoEwRH-28">
          <mxGeometry x="120" width="70" height="30" as="geometry" />
        </mxCell>
        <mxCell id="ZW19zNElDARvfiaoEwRH-31" value="out" style="rounded=0;whiteSpace=wrap;html=1;fillColor=#f0a30a;strokeColor=#BD7000;fontColor=#000000;" vertex="1" parent="ZW19zNElDARvfiaoEwRH-28">
          <mxGeometry x="120" y="30" width="70" height="30" as="geometry" />
        </mxCell>
        <mxCell id="ZW19zNElDARvfiaoEwRH-45" value="&lt;div&gt;- Wet&lt;/div&gt;" style="rounded=0;whiteSpace=wrap;html=1;align=left;verticalAlign=top;" vertex="1" parent="ZW19zNElDARvfiaoEwRH-46">
          <mxGeometry width="120" height="27" as="geometry" />
        </mxCell>
        <mxCell id="ZW19zNElDARvfiaoEwRH-49" value="" style="group" vertex="1" connectable="0" parent="1">
          <mxGeometry x="840" y="270" width="190" height="160" as="geometry" />
        </mxCell>
        <mxCell id="1RlUKnHz0VrdkwbsVvpS-55" value="" style="group" parent="ZW19zNElDARvfiaoEwRH-49" vertex="1" connectable="0">
          <mxGeometry y="100" width="190" height="60" as="geometry" />
        </mxCell>
        <mxCell id="1RlUKnHz0VrdkwbsVvpS-56" value="ADSR&lt;div&gt;Amp&lt;/div&gt;" style="rounded=0;whiteSpace=wrap;html=1;" parent="1RlUKnHz0VrdkwbsVvpS-55" vertex="1">
          <mxGeometry width="120" height="60" as="geometry" />
        </mxCell>
        <mxCell id="1RlUKnHz0VrdkwbsVvpS-57" value="out" style="rounded=0;whiteSpace=wrap;html=1;fillColor=#d5e8d4;strokeColor=#82b366;" parent="1RlUKnHz0VrdkwbsVvpS-55" vertex="1">
          <mxGeometry x="120" width="70" height="60" as="geometry" />
        </mxCell>
        <mxCell id="ZW19zNElDARvfiaoEwRH-47" value="&lt;div&gt;- Density&lt;/div&gt;- Space&lt;div&gt;- SpaceSize&lt;/div&gt;&lt;div&gt;- Damping&lt;/div&gt;&lt;div&gt;- Attack curve&lt;/div&gt;&lt;div&gt;- Release curve&lt;/div&gt;&lt;div&gt;- Gain (Velocity)&lt;/div&gt;" style="rounded=0;whiteSpace=wrap;html=1;align=left;verticalAlign=top;" vertex="1" parent="ZW19zNElDARvfiaoEwRH-49">
          <mxGeometry y="-10" width="120" height="110" as="geometry" />
        </mxCell>
        <mxCell id="ZW19zNElDARvfiaoEwRH-51" value="" style="group" vertex="1" connectable="0" parent="1">
          <mxGeometry x="629" y="60" width="190" height="160" as="geometry" />
        </mxCell>
        <mxCell id="1RlUKnHz0VrdkwbsVvpS-46" value="" style="group" parent="ZW19zNElDARvfiaoEwRH-51" vertex="1" connectable="0">
          <mxGeometry y="100" width="190" height="60" as="geometry" />
        </mxCell>
        <mxCell id="1RlUKnHz0VrdkwbsVvpS-47" value="ADSR&lt;div&gt;Cutoff&lt;/div&gt;" style="rounded=0;whiteSpace=wrap;html=1;" parent="1RlUKnHz0VrdkwbsVvpS-46" vertex="1">
          <mxGeometry width="120" height="60" as="geometry" />
        </mxCell>
        <mxCell id="1RlUKnHz0VrdkwbsVvpS-48" value="out" style="rounded=0;whiteSpace=wrap;html=1;fillColor=#d5e8d4;strokeColor=#82b366;" parent="1RlUKnHz0VrdkwbsVvpS-46" vertex="1">
          <mxGeometry x="120" width="70" height="60" as="geometry" />
        </mxCell>
        <mxCell id="ZW19zNElDARvfiaoEwRH-50" value="&lt;div&gt;- Density&lt;/div&gt;- Space&lt;div&gt;- SpaceSize&lt;/div&gt;&lt;div&gt;- Damping&lt;/div&gt;&lt;div&gt;- Attack curve&lt;/div&gt;&lt;div&gt;- Release curve&lt;/div&gt;&lt;div&gt;- Gain (Cutoff)&lt;/div&gt;" style="rounded=0;whiteSpace=wrap;html=1;align=left;verticalAlign=top;" vertex="1" parent="ZW19zNElDARvfiaoEwRH-51">
          <mxGeometry y="-10" width="120" height="110" as="geometry" />
        </mxCell>
        <mxCell id="ZW19zNElDARvfiaoEwRH-55" value="" style="group" vertex="1" connectable="0" parent="1">
          <mxGeometry x="40" y="76" width="190" height="84" as="geometry" />
        </mxCell>
        <mxCell id="1RlUKnHz0VrdkwbsVvpS-7" value="" style="group" parent="ZW19zNElDARvfiaoEwRH-55" vertex="1" connectable="0">
          <mxGeometry y="24" width="190" height="60" as="geometry" />
        </mxCell>
        <mxCell id="1RlUKnHz0VrdkwbsVvpS-8" value="Modulator" style="rounded=0;whiteSpace=wrap;html=1;" parent="1RlUKnHz0VrdkwbsVvpS-7" vertex="1">
          <mxGeometry width="120" height="60" as="geometry" />
        </mxCell>
        <mxCell id="1RlUKnHz0VrdkwbsVvpS-9" value="in" style="rounded=0;whiteSpace=wrap;html=1;fillColor=#d5e8d4;strokeColor=#82b366;" parent="1RlUKnHz0VrdkwbsVvpS-7" vertex="1">
          <mxGeometry x="120" width="70" height="30" as="geometry" />
        </mxCell>
        <mxCell id="1RlUKnHz0VrdkwbsVvpS-10" value="out" style="rounded=0;whiteSpace=wrap;html=1;fillColor=#dae8fc;strokeColor=#6c8ebf;" parent="1RlUKnHz0VrdkwbsVvpS-7" vertex="1">
          <mxGeometry x="120" y="30" width="70" height="30" as="geometry" />
        </mxCell>
        <mxCell id="-PE1lzg4pa8SutdhLXtv-1" value="" style="shape=cross;whiteSpace=wrap;html=1;rotation=-45;fillColor=#d80073;fontColor=#ffffff;strokeColor=#A50040;" vertex="1" parent="1RlUKnHz0VrdkwbsVvpS-7">
          <mxGeometry x="160.51999999999998" y="2" width="28.48" height="27.66" as="geometry" />
        </mxCell>
        <mxCell id="ZW19zNElDARvfiaoEwRH-54" value="&lt;div&gt;- Frequency&lt;/div&gt;" style="rounded=0;whiteSpace=wrap;html=1;align=left;verticalAlign=top;" vertex="1" parent="ZW19zNElDARvfiaoEwRH-55">
          <mxGeometry width="120" height="24" as="geometry" />
        </mxCell>
        <mxCell id="ZW19zNElDARvfiaoEwRH-56" value="" style="group" vertex="1" connectable="0" parent="1">
          <mxGeometry x="190" y="320" width="270" height="84" as="geometry" />
        </mxCell>
        <mxCell id="1RlUKnHz0VrdkwbsVvpS-6" value="" style="group" parent="ZW19zNElDARvfiaoEwRH-56" vertex="1" connectable="0">
          <mxGeometry y="24" width="190" height="60" as="geometry" />
        </mxCell>
        <mxCell id="1RlUKnHz0VrdkwbsVvpS-2" value="Carrier" style="rounded=0;whiteSpace=wrap;html=1;" parent="1RlUKnHz0VrdkwbsVvpS-6" vertex="1">
          <mxGeometry width="120" height="60" as="geometry" />
        </mxCell>
        <mxCell id="1RlUKnHz0VrdkwbsVvpS-3" value="in" style="rounded=0;whiteSpace=wrap;html=1;fillColor=#dae8fc;strokeColor=#6c8ebf;" parent="1RlUKnHz0VrdkwbsVvpS-6" vertex="1">
          <mxGeometry x="120" width="70" height="30" as="geometry" />
        </mxCell>
        <mxCell id="1RlUKnHz0VrdkwbsVvpS-5" value="out" style="rounded=0;whiteSpace=wrap;html=1;fillColor=#d5e8d4;strokeColor=#82b366;" parent="1RlUKnHz0VrdkwbsVvpS-6" vertex="1">
          <mxGeometry x="120" y="30" width="70" height="30" as="geometry" />
        </mxCell>
        <mxCell id="1RlUKnHz0VrdkwbsVvpS-17" value="mod" style="rounded=1;whiteSpace=wrap;html=1;fillColor=#dae8fc;strokeColor=#6c8ebf;" parent="ZW19zNElDARvfiaoEwRH-56" vertex="1">
          <mxGeometry x="230" y="39.129999999999995" width="40" height="29.75" as="geometry" />
        </mxCell>
        <mxCell id="T878VJU1H8XQpDewSJv4-3" style="edgeStyle=orthogonalEdgeStyle;rounded=0;orthogonalLoop=1;jettySize=auto;html=1;curved=1;entryX=0;entryY=0.25;entryDx=0;entryDy=0;exitX=1;exitY=0.5;exitDx=0;exitDy=0;" parent="ZW19zNElDARvfiaoEwRH-56" source="1RlUKnHz0VrdkwbsVvpS-3" target="1RlUKnHz0VrdkwbsVvpS-17" edge="1">
          <mxGeometry relative="1" as="geometry">
            <mxPoint x="23" y="-56" as="sourcePoint" />
            <mxPoint x="165" y="34" as="targetPoint" />
          </mxGeometry>
        </mxCell>
        <mxCell id="T878VJU1H8XQpDewSJv4-4" style="edgeStyle=orthogonalEdgeStyle;rounded=0;orthogonalLoop=1;jettySize=auto;html=1;curved=1;entryX=1;entryY=0.5;entryDx=0;entryDy=0;exitX=0;exitY=0.75;exitDx=0;exitDy=0;" parent="ZW19zNElDARvfiaoEwRH-56" source="1RlUKnHz0VrdkwbsVvpS-17" target="1RlUKnHz0VrdkwbsVvpS-5" edge="1">
          <mxGeometry relative="1" as="geometry">
            <mxPoint x="200" y="49" as="sourcePoint" />
            <mxPoint x="240" y="57" as="targetPoint" />
          </mxGeometry>
        </mxCell>
        <mxCell id="ZW19zNElDARvfiaoEwRH-53" value="&lt;div&gt;- Frequency&lt;/div&gt;" style="rounded=0;whiteSpace=wrap;html=1;align=left;verticalAlign=top;" vertex="1" parent="ZW19zNElDARvfiaoEwRH-56">
          <mxGeometry width="120" height="24" as="geometry" />
        </mxCell>
        <mxCell id="ZW19zNElDARvfiaoEwRH-58" value="" style="group" vertex="1" connectable="0" parent="1">
          <mxGeometry x="290" y="590" width="190" height="84" as="geometry" />
        </mxCell>
        <mxCell id="1RlUKnHz0VrdkwbsVvpS-25" value="" style="group" parent="ZW19zNElDARvfiaoEwRH-58" vertex="1" connectable="0">
          <mxGeometry y="24" width="190" height="60" as="geometry" />
        </mxCell>
        <mxCell id="1RlUKnHz0VrdkwbsVvpS-22" value="Noise" style="rounded=0;whiteSpace=wrap;html=1;" parent="1RlUKnHz0VrdkwbsVvpS-25" vertex="1">
          <mxGeometry width="120" height="60" as="geometry" />
        </mxCell>
        <mxCell id="1RlUKnHz0VrdkwbsVvpS-24" value="out" style="rounded=0;whiteSpace=wrap;html=1;fillColor=#d5e8d4;strokeColor=#82b366;" parent="1RlUKnHz0VrdkwbsVvpS-25" vertex="1">
          <mxGeometry x="120" width="70" height="60" as="geometry" />
        </mxCell>
        <mxCell id="ZW19zNElDARvfiaoEwRH-57" value="&lt;div&gt;- Type (white, pink)&lt;/div&gt;" style="rounded=0;whiteSpace=wrap;html=1;align=left;verticalAlign=top;" vertex="1" parent="ZW19zNElDARvfiaoEwRH-58">
          <mxGeometry width="120" height="24" as="geometry" />
        </mxCell>
        <mxCell id="ZW19zNElDARvfiaoEwRH-60" value="" style="group" vertex="1" connectable="0" parent="1">
          <mxGeometry x="629" y="350" width="190" height="104" as="geometry" />
        </mxCell>
        <mxCell id="1RlUKnHz0VrdkwbsVvpS-42" value="" style="group" parent="ZW19zNElDARvfiaoEwRH-60" vertex="1" connectable="0">
          <mxGeometry y="44" width="190" height="60" as="geometry" />
        </mxCell>
        <mxCell id="1RlUKnHz0VrdkwbsVvpS-43" value="Filter" style="rounded=0;whiteSpace=wrap;html=1;" parent="1RlUKnHz0VrdkwbsVvpS-42" vertex="1">
          <mxGeometry width="120" height="60" as="geometry" />
        </mxCell>
        <mxCell id="1RlUKnHz0VrdkwbsVvpS-44" value="in" style="rounded=0;whiteSpace=wrap;html=1;fillColor=#dae8fc;strokeColor=#6c8ebf;" parent="1RlUKnHz0VrdkwbsVvpS-42" vertex="1">
          <mxGeometry x="120" width="70" height="30" as="geometry" />
        </mxCell>
        <mxCell id="1RlUKnHz0VrdkwbsVvpS-45" value="out" style="rounded=0;whiteSpace=wrap;html=1;fillColor=#dae8fc;strokeColor=#6c8ebf;" parent="1RlUKnHz0VrdkwbsVvpS-42" vertex="1">
          <mxGeometry x="120" y="30" width="70" height="30" as="geometry" />
        </mxCell>
        <mxCell id="ZW19zNElDARvfiaoEwRH-59" value="&lt;div&gt;- Resonance&lt;/div&gt;&lt;div&gt;- Drive&lt;/div&gt;" style="rounded=0;whiteSpace=wrap;html=1;align=left;verticalAlign=top;" vertex="1" parent="ZW19zNElDARvfiaoEwRH-60">
          <mxGeometry width="120" height="44" as="geometry" />
        </mxCell>
        <mxCell id="ZW19zNElDARvfiaoEwRH-62" value="" style="group" vertex="1" connectable="0" parent="1">
          <mxGeometry x="1340" y="210" width="190" height="134" as="geometry" />
        </mxCell>
        <mxCell id="ZW19zNElDARvfiaoEwRH-63" value="" style="group;fillColor=#dae8fc;strokeColor=#6c8ebf;" vertex="1" connectable="0" parent="ZW19zNElDARvfiaoEwRH-62">
          <mxGeometry x="-150" y="74" width="190" height="60" as="geometry" />
        </mxCell>
        <mxCell id="ZW19zNElDARvfiaoEwRH-64" value="Saturator" style="rounded=0;whiteSpace=wrap;html=1;" vertex="1" parent="ZW19zNElDARvfiaoEwRH-63">
          <mxGeometry width="120" height="60" as="geometry" />
        </mxCell>
        <mxCell id="ZW19zNElDARvfiaoEwRH-65" value="in" style="rounded=0;whiteSpace=wrap;html=1;fillColor=#dae8fc;strokeColor=#6c8ebf;" vertex="1" parent="ZW19zNElDARvfiaoEwRH-63">
          <mxGeometry x="120" width="70" height="30" as="geometry" />
        </mxCell>
        <mxCell id="ZW19zNElDARvfiaoEwRH-66" value="out" style="rounded=0;whiteSpace=wrap;html=1;fillColor=#dae8fc;strokeColor=#6c8ebf;" vertex="1" parent="ZW19zNElDARvfiaoEwRH-63">
          <mxGeometry x="120" y="30" width="70" height="30" as="geometry" />
        </mxCell>
        <mxCell id="ZW19zNElDARvfiaoEwRH-67" value="&lt;div&gt;- Amount&lt;/div&gt;" style="rounded=0;whiteSpace=wrap;html=1;align=left;verticalAlign=top;" vertex="1" parent="ZW19zNElDARvfiaoEwRH-62">
          <mxGeometry x="-150" y="50" width="120" height="24" as="geometry" />
        </mxCell>
        <mxCell id="ZW19zNElDARvfiaoEwRH-91" value="" style="rounded=0;whiteSpace=wrap;html=1;fillColor=#76608a;fontColor=#ffffff;strokeColor=#432D57;" vertex="1" parent="ZW19zNElDARvfiaoEwRH-62">
          <mxGeometry x="-96" y="59" width="10" height="10" as="geometry" />
        </mxCell>
        <mxCell id="ZW19zNElDARvfiaoEwRH-68" value="" style="group;fillColor=#dae8fc;strokeColor=#6c8ebf;" vertex="1" connectable="0" parent="1">
          <mxGeometry x="1240" y="414" width="190" height="60" as="geometry" />
        </mxCell>
        <mxCell id="ZW19zNElDARvfiaoEwRH-69" value="Delay" style="rounded=0;whiteSpace=wrap;html=1;" vertex="1" parent="ZW19zNElDARvfiaoEwRH-68">
          <mxGeometry width="120" height="60" as="geometry" />
        </mxCell>
        <mxCell id="ZW19zNElDARvfiaoEwRH-70" value="in" style="rounded=0;whiteSpace=wrap;html=1;fillColor=#d5e8d4;strokeColor=#82b366;" vertex="1" parent="ZW19zNElDARvfiaoEwRH-68">
          <mxGeometry x="120" width="70" height="30" as="geometry" />
        </mxCell>
        <mxCell id="ZW19zNElDARvfiaoEwRH-71" value="out" style="rounded=0;whiteSpace=wrap;html=1;fillColor=#d5e8d4;strokeColor=#82b366;" vertex="1" parent="ZW19zNElDARvfiaoEwRH-68">
          <mxGeometry x="120" y="30" width="70" height="30" as="geometry" />
        </mxCell>
        <mxCell id="ZW19zNElDARvfiaoEwRH-72" value="&lt;div&gt;- Time L/R&lt;/div&gt;&lt;div&gt;- Feedback L/R&lt;/div&gt;" style="rounded=0;whiteSpace=wrap;html=1;align=left;verticalAlign=top;" vertex="1" parent="1">
          <mxGeometry x="1240" y="370" width="120" height="44" as="geometry" />
        </mxCell>
        <mxCell id="ZW19zNElDARvfiaoEwRH-76" style="edgeStyle=orthogonalEdgeStyle;rounded=0;orthogonalLoop=1;jettySize=auto;html=1;curved=1;exitX=0.5;exitY=1;exitDx=0;exitDy=0;entryX=0.5;entryY=0;entryDx=0;entryDy=0;" edge="1" parent="1" source="ZW19zNElDARvfiaoEwRH-66" target="ZW19zNElDARvfiaoEwRH-70">
          <mxGeometry relative="1" as="geometry">
            <mxPoint x="1015" y="690" as="sourcePoint" />
            <mxPoint x="1268" y="909" as="targetPoint" />
          </mxGeometry>
        </mxCell>
        <mxCell id="ZW19zNElDARvfiaoEwRH-80" style="edgeStyle=orthogonalEdgeStyle;rounded=0;orthogonalLoop=1;jettySize=auto;html=1;curved=1;exitX=0.5;exitY=1;exitDx=0;exitDy=0;entryX=0.5;entryY=0;entryDx=0;entryDy=0;" edge="1" parent="1" source="ZW19zNElDARvfiaoEwRH-71" target="ZW19zNElDARvfiaoEwRH-22">
          <mxGeometry relative="1" as="geometry">
            <mxPoint x="1505" y="354" as="sourcePoint" />
            <mxPoint x="1515" y="444" as="targetPoint" />
          </mxGeometry>
        </mxCell>
        <mxCell id="ZW19zNElDARvfiaoEwRH-81" value="" style="group" vertex="1" connectable="0" parent="1">
          <mxGeometry x="1564" y="211" width="190" height="168" as="geometry" />
        </mxCell>
        <mxCell id="ZW19zNElDARvfiaoEwRH-113" value="" style="group" vertex="1" connectable="0" parent="ZW19zNElDARvfiaoEwRH-81">
          <mxGeometry x="-404" y="-91" width="190" height="104" as="geometry" />
        </mxCell>
        <mxCell id="ZW19zNElDARvfiaoEwRH-82" value="" style="group;fillColor=#dae8fc;strokeColor=#6c8ebf;container=0;" vertex="1" connectable="0" parent="ZW19zNElDARvfiaoEwRH-113">
          <mxGeometry y="44" width="190" height="60" as="geometry" />
        </mxCell>
        <mxCell id="ZW19zNElDARvfiaoEwRH-86" value="&lt;div&gt;- Frequency L/R&lt;/div&gt;&lt;div&gt;- Amount&lt;/div&gt;" style="rounded=0;whiteSpace=wrap;html=1;align=left;verticalAlign=top;container=0;" vertex="1" parent="ZW19zNElDARvfiaoEwRH-113">
          <mxGeometry width="120" height="44" as="geometry" />
        </mxCell>
        <mxCell id="ZW19zNElDARvfiaoEwRH-83" value="Ringmod" style="rounded=0;whiteSpace=wrap;html=1;container=0;" vertex="1" parent="ZW19zNElDARvfiaoEwRH-113">
          <mxGeometry y="44" width="120" height="60" as="geometry" />
        </mxCell>
        <mxCell id="ZW19zNElDARvfiaoEwRH-84" value="in" style="rounded=0;whiteSpace=wrap;html=1;fillColor=#d5e8d4;strokeColor=#82b366;container=0;" vertex="1" parent="ZW19zNElDARvfiaoEwRH-113">
          <mxGeometry x="120" y="44" width="70" height="30" as="geometry" />
        </mxCell>
        <mxCell id="ZW19zNElDARvfiaoEwRH-85" value="out" style="rounded=0;whiteSpace=wrap;html=1;fillColor=#dae8fc;strokeColor=#6c8ebf;container=0;" vertex="1" parent="ZW19zNElDARvfiaoEwRH-113">
          <mxGeometry x="120" y="74" width="70" height="30" as="geometry" />
        </mxCell>
        <mxCell id="ZW19zNElDARvfiaoEwRH-87" value="" style="rounded=0;whiteSpace=wrap;html=1;fillColor=#76608a;fontColor=#ffffff;strokeColor=#432D57;container=0;" vertex="1" parent="1">
          <mxGeometry x="1212" y="144" width="10" height="10" as="geometry" />
        </mxCell>
        <mxCell id="ZW19zNElDARvfiaoEwRH-90" value="" style="rounded=0;whiteSpace=wrap;html=1;fillColor=#76608a;fontColor=#ffffff;strokeColor=#432D57;" vertex="1" parent="1">
          <mxGeometry x="1300" y="379" width="10" height="10" as="geometry" />
        </mxCell>
        <mxCell id="ZW19zNElDARvfiaoEwRH-88" value="" style="rounded=0;whiteSpace=wrap;html=1;fillColor=#76608a;fontColor=#ffffff;strokeColor=#432D57;container=0;" vertex="1" parent="1">
          <mxGeometry x="1249" y="129" width="10" height="10" as="geometry" />
        </mxCell>
        <mxCell id="ZW19zNElDARvfiaoEwRH-92" value="" style="rounded=0;whiteSpace=wrap;html=1;fillColor=#76608a;fontColor=#ffffff;strokeColor=#432D57;" vertex="1" parent="1">
          <mxGeometry x="930" y="356" width="10" height="10" as="geometry" />
        </mxCell>
        <mxCell id="ZW19zNElDARvfiaoEwRH-93" value="" style="rounded=0;whiteSpace=wrap;html=1;fillColor=#76608a;fontColor=#ffffff;strokeColor=#432D57;" vertex="1" parent="1">
          <mxGeometry x="710" y="145" width="10" height="10" as="geometry" />
        </mxCell>
        <mxCell id="ZW19zNElDARvfiaoEwRH-94" value="" style="rounded=0;whiteSpace=wrap;html=1;fillColor=#76608a;fontColor=#ffffff;strokeColor=#432D57;" vertex="1" parent="1">
          <mxGeometry x="110" y="85" width="10" height="10" as="geometry" />
        </mxCell>
        <mxCell id="ZW19zNElDARvfiaoEwRH-95" value="" style="rounded=0;whiteSpace=wrap;html=1;fillColor=#76608a;fontColor=#ffffff;strokeColor=#432D57;" vertex="1" parent="1">
          <mxGeometry x="260" y="330" width="10" height="10" as="geometry" />
        </mxCell>
        <mxCell id="ZW19zNElDARvfiaoEwRH-98" value="" style="group" vertex="1" connectable="0" parent="1">
          <mxGeometry x="1000" y="890" width="190" height="87" as="geometry" />
        </mxCell>
        <mxCell id="ZW19zNElDARvfiaoEwRH-99" value="" style="group;fillColor=#d5e8d4;strokeColor=#82b366;" vertex="1" connectable="0" parent="ZW19zNElDARvfiaoEwRH-98">
          <mxGeometry y="27" width="190" height="60" as="geometry" />
        </mxCell>
        <mxCell id="ZW19zNElDARvfiaoEwRH-100" value="Panning" style="rounded=0;whiteSpace=wrap;html=1;" vertex="1" parent="ZW19zNElDARvfiaoEwRH-99">
          <mxGeometry width="120" height="60" as="geometry" />
        </mxCell>
        <mxCell id="ZW19zNElDARvfiaoEwRH-101" value="in" style="rounded=0;whiteSpace=wrap;html=1;fillColor=#f0a30a;strokeColor=#BD7000;fontColor=#000000;" vertex="1" parent="ZW19zNElDARvfiaoEwRH-99">
          <mxGeometry x="120" width="70" height="30" as="geometry" />
        </mxCell>
        <mxCell id="ZW19zNElDARvfiaoEwRH-102" value="out" style="rounded=0;whiteSpace=wrap;html=1;fillColor=#f0a30a;strokeColor=#BD7000;fontColor=#000000;" vertex="1" parent="ZW19zNElDARvfiaoEwRH-99">
          <mxGeometry x="120" y="30" width="70" height="30" as="geometry" />
        </mxCell>
        <mxCell id="ZW19zNElDARvfiaoEwRH-103" value="&lt;div&gt;- L/R&lt;/div&gt;" style="rounded=0;whiteSpace=wrap;html=1;align=left;verticalAlign=top;" vertex="1" parent="ZW19zNElDARvfiaoEwRH-98">
          <mxGeometry width="120" height="27" as="geometry" />
        </mxCell>
        <mxCell id="ZW19zNElDARvfiaoEwRH-104" style="edgeStyle=orthogonalEdgeStyle;rounded=0;orthogonalLoop=1;jettySize=auto;html=1;curved=1;exitX=0.5;exitY=1;exitDx=0;exitDy=0;entryX=0.5;entryY=0;entryDx=0;entryDy=0;" edge="1" parent="1" source="ZW19zNElDARvfiaoEwRH-102" target="ZW19zNElDARvfiaoEwRH-122">
          <mxGeometry relative="1" as="geometry">
            <mxPoint x="1155" y="939" as="sourcePoint" />
            <mxPoint x="1185" y="1020" as="targetPoint" />
          </mxGeometry>
        </mxCell>
        <mxCell id="ZW19zNElDARvfiaoEwRH-96" value="" style="rounded=0;whiteSpace=wrap;html=1;fillColor=#76608a;fontColor=#ffffff;strokeColor=#432D57;" vertex="1" parent="1">
          <mxGeometry x="1032" y="899" width="10" height="10" as="geometry" />
        </mxCell>
        <mxCell id="ZW19zNElDARvfiaoEwRH-112" value="" style="group" vertex="1" connectable="0" parent="1">
          <mxGeometry x="610" y="930" width="154" height="140.5" as="geometry" />
        </mxCell>
        <mxCell id="ZW19zNElDARvfiaoEwRH-106" value="LFO1" style="rounded=0;whiteSpace=wrap;html=1;fillColor=#76608a;fontColor=#ffffff;strokeColor=#432D57;" vertex="1" parent="ZW19zNElDARvfiaoEwRH-112">
          <mxGeometry width="54" height="40.5" as="geometry" />
        </mxCell>
        <mxCell id="ZW19zNElDARvfiaoEwRH-107" value="Modulation" style="text;html=1;align=left;verticalAlign=middle;whiteSpace=wrap;rounded=0;fontSize=12;" vertex="1" parent="ZW19zNElDARvfiaoEwRH-112">
          <mxGeometry x="64" y="110.5" width="90" height="30" as="geometry" />
        </mxCell>
        <mxCell id="ZW19zNElDARvfiaoEwRH-108" value="" style="rounded=0;whiteSpace=wrap;html=1;fillColor=#76608a;fontColor=#ffffff;strokeColor=#432D57;" vertex="1" parent="ZW19zNElDARvfiaoEwRH-112">
          <mxGeometry x="54" y="120.5" width="10" height="10" as="geometry" />
        </mxCell>
        <mxCell id="ZW19zNElDARvfiaoEwRH-109" style="edgeStyle=orthogonalEdgeStyle;rounded=0;orthogonalLoop=1;jettySize=auto;html=1;curved=1;exitX=0.5;exitY=1;exitDx=0;exitDy=0;entryX=0.5;entryY=0;entryDx=0;entryDy=0;" edge="1" parent="ZW19zNElDARvfiaoEwRH-112" source="ZW19zNElDARvfiaoEwRH-106" target="ZW19zNElDARvfiaoEwRH-108">
          <mxGeometry relative="1" as="geometry">
            <mxPoint x="-545" y="-102.5" as="sourcePoint" />
            <mxPoint x="-515" y="-59.5" as="targetPoint" />
          </mxGeometry>
        </mxCell>
        <mxCell id="ZW19zNElDARvfiaoEwRH-110" value="LFO2" style="rounded=0;whiteSpace=wrap;html=1;fillColor=#76608a;fontColor=#ffffff;strokeColor=#432D57;" vertex="1" parent="ZW19zNElDARvfiaoEwRH-112">
          <mxGeometry x="60" width="54" height="40.5" as="geometry" />
        </mxCell>
        <mxCell id="ZW19zNElDARvfiaoEwRH-111" style="edgeStyle=orthogonalEdgeStyle;rounded=0;orthogonalLoop=1;jettySize=auto;html=1;curved=1;exitX=0.5;exitY=1;exitDx=0;exitDy=0;entryX=0.5;entryY=0;entryDx=0;entryDy=0;" edge="1" parent="ZW19zNElDARvfiaoEwRH-112" source="ZW19zNElDARvfiaoEwRH-110" target="ZW19zNElDARvfiaoEwRH-108">
          <mxGeometry relative="1" as="geometry">
            <mxPoint x="37" y="50.5" as="sourcePoint" />
            <mxPoint x="-29" y="190.5" as="targetPoint" />
          </mxGeometry>
        </mxCell>
        <mxCell id="ZW19zNElDARvfiaoEwRH-114" style="edgeStyle=orthogonalEdgeStyle;rounded=0;orthogonalLoop=1;jettySize=auto;html=1;curved=1;exitX=0.75;exitY=1;exitDx=0;exitDy=0;entryX=0.444;entryY=0.024;entryDx=0;entryDy=0;entryPerimeter=0;" edge="1" parent="1" source="ZW19zNElDARvfiaoEwRH-36" target="ZW19zNElDARvfiaoEwRH-84">
          <mxGeometry relative="1" as="geometry">
            <mxPoint x="868" y="660" as="sourcePoint" />
            <mxPoint x="1160" y="520" as="targetPoint" />
            <Array as="points">
              <mxPoint x="892" y="670" />
              <mxPoint x="1095" y="670" />
              <mxPoint x="1095" y="70" />
              <mxPoint x="1311" y="70" />
            </Array>
          </mxGeometry>
        </mxCell>
        <mxCell id="ZW19zNElDARvfiaoEwRH-116" style="edgeStyle=orthogonalEdgeStyle;rounded=0;orthogonalLoop=1;jettySize=auto;html=1;curved=1;entryX=0.5;entryY=0;entryDx=0;entryDy=0;exitX=0.5;exitY=1;exitDx=0;exitDy=0;" edge="1" parent="1" source="ZW19zNElDARvfiaoEwRH-85" target="ZW19zNElDARvfiaoEwRH-65">
          <mxGeometry relative="1" as="geometry">
            <mxPoint x="1300" y="250" as="sourcePoint" />
            <mxPoint x="1321" y="175" as="targetPoint" />
          </mxGeometry>
        </mxCell>
        <mxCell id="ZW19zNElDARvfiaoEwRH-117" value="" style="group" vertex="1" connectable="0" parent="1">
          <mxGeometry x="1540" y="180" width="134" height="30" as="geometry" />
        </mxCell>
        <mxCell id="ZW19zNElDARvfiaoEwRH-37" value="" style="rounded=0;whiteSpace=wrap;html=1;fillColor=#dae8fc;strokeColor=#6c8ebf;" vertex="1" parent="ZW19zNElDARvfiaoEwRH-117">
          <mxGeometry y="5" width="40" height="20" as="geometry" />
        </mxCell>
        <mxCell id="ZW19zNElDARvfiaoEwRH-38" value="Shared buffer" style="text;html=1;align=left;verticalAlign=middle;whiteSpace=wrap;rounded=0;fontSize=12;" vertex="1" parent="ZW19zNElDARvfiaoEwRH-117">
          <mxGeometry x="44" width="90" height="30" as="geometry" />
        </mxCell>
        <mxCell id="ZW19zNElDARvfiaoEwRH-118" value="" style="group" vertex="1" connectable="0" parent="1">
          <mxGeometry x="1540" y="150" width="134" height="30" as="geometry" />
        </mxCell>
        <mxCell id="ZW19zNElDARvfiaoEwRH-24" value="" style="rounded=0;whiteSpace=wrap;html=1;fillColor=#d5e8d4;strokeColor=#82b366;" vertex="1" parent="ZW19zNElDARvfiaoEwRH-118">
          <mxGeometry y="5" width="40" height="20" as="geometry" />
        </mxCell>
        <mxCell id="ZW19zNElDARvfiaoEwRH-25" value="Internal buffer" style="text;html=1;align=left;verticalAlign=middle;whiteSpace=wrap;rounded=0;fontSize=12;" vertex="1" parent="ZW19zNElDARvfiaoEwRH-118">
          <mxGeometry x="44" width="90" height="30" as="geometry" />
        </mxCell>
        <mxCell id="ZW19zNElDARvfiaoEwRH-119" value="" style="group;fillColor=none;" vertex="1" connectable="0" parent="1">
          <mxGeometry x="1020" y="1000" width="190" height="87" as="geometry" />
        </mxCell>
        <mxCell id="ZW19zNElDARvfiaoEwRH-120" value="" style="group;fillColor=none;" vertex="1" connectable="0" parent="ZW19zNElDARvfiaoEwRH-119">
          <mxGeometry y="27" width="190" height="60" as="geometry" />
        </mxCell>
        <mxCell id="ZW19zNElDARvfiaoEwRH-121" value="Host&lt;div&gt;(PD, SC, VST, LV2)&lt;/div&gt;" style="rounded=0;whiteSpace=wrap;html=1;" vertex="1" parent="ZW19zNElDARvfiaoEwRH-120">
          <mxGeometry width="120" height="60" as="geometry" />
        </mxCell>
        <mxCell id="ZW19zNElDARvfiaoEwRH-122" value="in" style="rounded=0;whiteSpace=wrap;html=1;fillColor=#f0a30a;strokeColor=#BD7000;fontColor=#000000;" vertex="1" parent="ZW19zNElDARvfiaoEwRH-120">
          <mxGeometry x="120" width="70" height="60" as="geometry" />
        </mxCell>
      </root>
    </mxGraphModel>
  </diagram>
  <diagram id="f9mXI4JDf2k-UGxON8c4" name="Signal flow effects">
    <mxGraphModel dx="2946" dy="1214" grid="1" gridSize="10" guides="1" tooltips="1" connect="1" arrows="1" fold="1" page="1" pageScale="1" pageWidth="1169" pageHeight="827" math="0" shadow="0">
      <root>
        <mxCell id="0" />
        <mxCell id="1" parent="0" />
      </root>
    </mxGraphModel>
  </diagram>
</mxfile>
